<?xml version="1.0" ?><svg height="32" id="svg5" version="1.1" viewBox="0 0 32 32" width="32" xmlns="http://www.w3.org/2000/svg" xmlns:svg="http://www.w3.org/2000/svg"><defs id="defs2"/><g id="layer1" transform="translate(-108,-388)"><path d="m 125.35938,391.79883 c -0.43034,0.0768 -0.84931,0.27704 -1.1875,0.61523 l 0.0937,-0.084 L 115.6582,399 H 112 c -1.64501,0 -3,1.35499 -3,3 v 4 c 0,1.64501 1.35499,3 3,3 h 3.6582 l 8.60743,6.66992 -0.0937,-0.084 c 0.67638,0.67638 1.67444,0.80482 2.44335,0.48633 C 127.38415,415.75377 128,414.95655 128,414 v -20 c 0,-0.95655 -0.61585,-1.75377 -1.38477,-2.07227 -0.38445,-0.15924 -0.82552,-0.2057 -1.25585,-0.1289 z m 0.49023,1.97656 C 125.94565,393.81517 126,393.84948 126,394 v 20 c 0,0.15052 -0.0543,0.18483 -0.15039,0.22461 -0.096,0.0398 -0.15724,0.0537 -0.26367,-0.0527 a 1.0001,1.0001 0 0 0 -0.0957,-0.084 L 116.61329,407.209 A 1.0001,1.0001 0 0 0 116,407 h -4 c -0.56413,0 -1,-0.43587 -1,-1 v -4 c 0,-0.56413 0.43587,-1 1,-1 h 4 a 1.0001,1.0001 0 0 0 0.61328,-0.20898 l 8.87695,-6.87891 a 1.0001,1.0001 0 0 0 0.0957,-0.084 c 0.10643,-0.10643 0.16763,-0.0925 0.26367,-0.0527 z" id="rect7545" style="color:#000000;fill:#002cba;fill-opacity:1;fill-rule:evenodd;stroke-linecap:round;stroke-linejoin:round;stroke-miterlimit:4.1;-inkscape-stroke:none"/><path d="m 134,399 c -2.74958,0 -5,2.25042 -5,5 0,2.74958 2.25042,5 5,5 2.74958,0 5,-2.25042 5,-5 0,-2.74958 -2.25042,-5 -5,-5 z m 0,2 c 0.18802,0 0.3708,0.0184 0.54883,0.0508 l -2.83008,4.90234 C 131.27146,405.42976 131,404.74969 131,404 c 0,-1.6687 1.3313,-3 3,-3 z m 2.28125,1.04688 C 136.72854,402.57024 137,403.25031 137,404 c 0,1.6687 -1.3313,3 -3,3 -0.18802,0 -0.3708,-0.0184 -0.54883,-0.0508 z" id="path7539" style="color:#000000;fill:#00c89f;fill-opacity:1;fill-rule:evenodd;stroke-linecap:round;stroke-linejoin:round;stroke-miterlimit:4.1;-inkscape-stroke:none"/></g></svg>