<?xml version="1.0" ?><svg height="32" id="svg5" version="1.1" viewBox="0 0 32 32" width="32" xmlns="http://www.w3.org/2000/svg" xmlns:svg="http://www.w3.org/2000/svg"><defs id="defs2"/><g id="layer1" transform="translate(-252,-388)"><path d="m 269.35937,391.79883 c -0.43033,0.0768 -0.8493,0.27704 -1.1875,0.61523 l 0.0937,-0.084 L 259.6582,399 H 257 c -1.64501,0 -3,1.35499 -3,3 v 4 c 0,1.64501 1.35499,3 3,3 h 2.6582 l 8.60742,6.66992 -0.0937,-0.084 c 0.67639,0.67638 1.67445,0.80482 2.44336,0.48633 C 271.38415,415.75377 272,414.95655 272,414 v -20 c 0,-0.95655 -0.61585,-1.75377 -1.38477,-2.07227 -0.38445,-0.15924 -0.82552,-0.2057 -1.25586,-0.1289 z m 0.49024,1.97656 C 269.94565,393.81517 270,393.84948 270,394 v 20 c 0,0.15052 -0.0543,0.18483 -0.15039,0.22461 -0.096,0.0398 -0.15724,0.0537 -0.26367,-0.0527 a 1.0001,1.0001 0 0 0 -0.0957,-0.084 L 260.61329,407.209 A 1.0001,1.0001 0 0 0 260,407 h -3 c -0.56413,0 -1,-0.43587 -1,-1 v -4 c 0,-0.56413 0.43587,-1 1,-1 h 3 a 1.0001,1.0001 0 0 0 0.61328,-0.20898 l 8.87695,-6.87891 a 1.0001,1.0001 0 0 0 0.0957,-0.084 c 0.10643,-0.10643 0.16763,-0.0925 0.26367,-0.0527 z" id="path11126" style="color:#000000;fill:#002cba;fill-opacity:1;fill-rule:evenodd;stroke-linecap:round;stroke-linejoin:round;stroke-miterlimit:4.1;-inkscape-stroke:none"/><path d="m 273.86133,401.03125 a 1,1 0 0 0 -0.31641,1.37891 C 273.84293,402.887 274,403.4377 274,404 c 0,0.5623 -0.15707,1.113 -0.45508,1.58984 a 1,1 0 0 0 0.31641,1.37891 1,1 0 0 0 1.3789,-0.31836 C 275.73681,405.85582 276,404.93698 276,404 c 0,-0.93698 -0.26319,-1.85582 -0.75977,-2.65039 a 1,1 0 0 0 -1.3789,-0.31836 z" id="path11132" style="color:#000000;fill:#00c89f;fill-opacity:1;fill-rule:evenodd;stroke-linecap:round;stroke-linejoin:round;stroke-miterlimit:4.1;-inkscape-stroke:none"/><path d="m 277.16016,399.31445 a 1,1 0 0 0 -0.75391,0.12696 1,1 0 0 0 -0.31836,1.37695 C 276.68422,401.77218 277,402.87511 277,404 c 0,1.12489 -0.31578,2.22782 -0.91211,3.18164 a 1,1 0 0 0 0.31836,1.37695 1,1 0 0 0 1.37695,-0.31836 C 278.57822,406.96862 279,405.49969 279,404 c 0,-1.49969 -0.42178,-2.96862 -1.2168,-4.24023 a 1,1 0 0 0 -0.62304,-0.44532 z" id="path11168" style="color:#000000;fill:#00c89f;fill-opacity:1;fill-rule:evenodd;stroke-linecap:round;stroke-linejoin:round;stroke-miterlimit:4.1;-inkscape-stroke:none"/><path d="m 279.70508,397.72656 a 1,1 0 0 0 -0.75586,0.125 1,1 0 0 0 -0.31641,1.37891 C 279.52675,400.66086 280,402.31324 280,404 c 0,1.68676 -0.47325,3.33914 -1.36719,4.76953 a 1,1 0 0 0 0.31641,1.37891 1,1 0 0 0 1.3789,-0.31836 C 281.42063,408.08195 282,406.06144 282,404 c 0,-2.06144 -0.57937,-4.08195 -1.67188,-5.83008 a 1,1 0 0 0 -0.62304,-0.44336 z" id="path11170" style="color:#000000;fill:#00c89f;fill-opacity:1;fill-rule:evenodd;stroke-linecap:round;stroke-linejoin:round;stroke-miterlimit:4.1;-inkscape-stroke:none"/></g></svg>