<?xml version="1.0" ?><svg height="32" id="svg5" version="1.1" viewBox="0 0 32 32" width="32" xmlns="http://www.w3.org/2000/svg" xmlns:svg="http://www.w3.org/2000/svg"><defs id="defs2"/><g id="layer1" transform="translate(-156,-388)"><path d="m 173.35937,391.79883 c -0.43033,0.0768 -0.8493,0.27704 -1.1875,0.61523 l 0.0937,-0.084 L 163.6582,399 H 160 c -1.64501,0 -3,1.35499 -3,3 v 4 c 0,1.64501 1.35499,3 3,3 h 3.6582 l 8.60742,6.66992 -0.0937,-0.084 c 0.67639,0.67638 1.67445,0.80482 2.44336,0.48633 C 175.38415,415.75377 176,414.95655 176,414 v -20 c 0,-0.95655 -0.61585,-1.75377 -1.38477,-2.07227 -0.38445,-0.15924 -0.82552,-0.2057 -1.25586,-0.1289 z m 0.49024,1.97656 C 173.94565,393.81517 174,393.84948 174,394 v 20 c 0,0.15052 -0.0543,0.18483 -0.15039,0.22461 -0.096,0.0398 -0.15724,0.0537 -0.26367,-0.0527 a 1.0001,1.0001 0 0 0 -0.0957,-0.084 L 164.61329,407.209 A 1.0001,1.0001 0 0 0 164,407 h -4 c -0.56413,0 -1,-0.43587 -1,-1 v -4 c 0,-0.56413 0.43587,-1 1,-1 h 4 a 1.0001,1.0001 0 0 0 0.61328,-0.20898 l 8.87695,-6.87891 a 1.0001,1.0001 0 0 0 0.0957,-0.084 c 0.10643,-0.10643 0.16763,-0.0925 0.26367,-0.0527 z" id="path9327" style="color:#000000;fill:#002cba;fill-opacity:1;fill-rule:evenodd;stroke-linecap:round;stroke-linejoin:round;stroke-miterlimit:4.1;-inkscape-stroke:none"/><path d="m 179.17188,400.17188 a 1,1 0 0 0 -0.70704,0.29296 1,1 0 0 0 0,1.41407 l 2.1211,2.12109 -2.1211,2.12109 a 1,1 0 0 0 0,1.41407 1,1 0 0 0 1.41407,0 l 2.12109,-2.1211 2.12109,2.1211 a 1,1 0 0 0 1.41407,0 1,1 0 0 0 0,-1.41407 L 183.41406,404 l 2.1211,-2.12109 a 1,1 0 0 0 0,-1.41407 1,1 0 0 0 -0.70704,-0.29296 1,1 0 0 0 -0.70703,0.29296 l -2.12109,2.1211 -2.12109,-2.1211 a 1,1 0 0 0 -0.70703,-0.29296 z" id="path9331" style="color:#000000;fill:#00c89f;fill-opacity:1;fill-rule:evenodd;stroke-linecap:round;stroke-linejoin:round;stroke-miterlimit:4.1;-inkscape-stroke:none"/></g></svg>